<?xml version="1.0" encoding="UTF-8" standalone="no"?>
<!-- Created with Inkscape (http://www.inkscape.org/) -->

<svg
   width="1080"
   height="1080"
   viewBox="0 0 285.74999 285.75"
   version="1.1"
   id="svg1"
   xml:space="preserve"
   inkscape:export-filename="logo.png"
   inkscape:export-xdpi="96"
   inkscape:export-ydpi="96"
   xmlns:inkscape="http://www.inkscape.org/namespaces/inkscape"
   xmlns:sodipodi="http://sodipodi.sourceforge.net/DTD/sodipodi-0.dtd"
   xmlns:xlink="http://www.w3.org/1999/xlink"
   xmlns="http://www.w3.org/2000/svg"
   xmlns:svg="http://www.w3.org/2000/svg"><sodipodi:namedview
     id="namedview1"
     pagecolor="#ffffff"
     bordercolor="#000000"
     borderopacity="0.25"
     inkscape:showpageshadow="2"
     inkscape:pageopacity="0.0"
     inkscape:pagecheckerboard="0"
     inkscape:deskcolor="#d1d1d1"
     inkscape:document-units="mm"
     inkscape:export-bgcolor="#ffffff00"><inkscape:page
       x="0"
       y="0"
       width="285.75"
       height="285.75"
       id="page2"
       margin="0"
       bleed="0" /></sodipodi:namedview><defs
     id="defs1"><linearGradient
       id="linearGradient66"
       inkscape:collect="always"><stop
         style="stop-color:#10bfd2;stop-opacity:1;"
         offset="0"
         id="stop66" /><stop
         style="stop-color:#f848c6;stop-opacity:1;"
         offset="1"
         id="stop67" /></linearGradient><linearGradient
       id="linearGradient61"
       inkscape:collect="always"><stop
         style="stop-color:#10bfd2;stop-opacity:1;"
         offset="0"
         id="stop61" /><stop
         style="stop-color:#f848c6;stop-opacity:1;"
         offset="1"
         id="stop62" /></linearGradient><linearGradient
       inkscape:collect="always"
       xlink:href="#linearGradient61"
       id="linearGradient62"
       x1="106.40157"
       y1="202.61325"
       x2="173.70544"
       y2="202.61325"
       gradientUnits="userSpaceOnUse"
       gradientTransform="matrix(1.2620036,0,0,1.2769113,-44.060668,-28.481618)" /><linearGradient
       inkscape:collect="always"
       xlink:href="#linearGradient66"
       id="linearGradient67"
       x1="129.55502"
       y1="225.52632"
       x2="159.87347"
       y2="225.52632"
       gradientUnits="userSpaceOnUse" /><linearGradient
       inkscape:collect="always"
       xlink:href="#linearGradient66"
       id="linearGradient68"
       gradientUnits="userSpaceOnUse"
       x1="129.55502"
       y1="225.52632"
       x2="159.87347"
       y2="225.52632" /><linearGradient
       inkscape:collect="always"
       xlink:href="#linearGradient66"
       id="linearGradient69"
       gradientUnits="userSpaceOnUse"
       x1="129.55502"
       y1="225.52632"
       x2="159.87347"
       y2="225.52632" /></defs><g
     inkscape:label="Layer 1"
     inkscape:groupmode="layer"
     id="layer1"><path
       style="fill:#10bfd2;fill-opacity:1;stroke-width:12.7308;stroke-opacity:0.924138;paint-order:stroke fill markers"
       d="m 37.34751,209.17974 c -8.282613,-3.79528 -16.681099,-16.13643 -20.513698,-30.14392 -1.304749,-4.76869 -1.622045,-9.32079 -1.595681,-22.89311 0.03078,-15.84976 0.18803,-17.41279 2.441247,-24.2667 5.950141,-18.09947 15.709671,-28.20638 29.650792,-30.70616 3.292369,-0.59035 22.691995,-1.34487 44.319327,-1.723788 21.155203,-0.370612 39.176643,-0.996005 40.047733,-1.389772 1.26723,-0.57279 1.58381,-1.875344 1.58381,-6.516106 0,-3.190107 -0.32189,-6.001517 -0.71542,-6.247595 -0.3935,-0.246079 -12.61144,-0.744533 -27.15101,-1.107729 L 78.979057,83.5245 V 70.812917 c 0,-17.370685 1.39879,-20.649085 10.860362,-25.453585 10.376871,-5.269314 26.331231,-7.800382 44.786921,-7.105203 14.85257,0.559437 24.87298,2.463683 33.04598,6.279962 6.49282,3.031735 9.72124,5.748902 13.66587,11.501751 l 2.62475,3.827907 -0.0171,21.812367 c -0.0205,25.557244 -0.7828,32.203864 -4.55858,39.771934 -7.66925,15.37218 -18.25237,20.91754 -39.97315,20.94525 l -10.61091,0.0137 -6.13221,-5.30505 c -9.47638,-8.19815 -12.78609,-10.5102 -14.2382,-9.94641 -1.12085,0.43519 -5.58841,5.78351 -10.638646,12.73603 -0.641366,0.88291 -4.588674,2.82747 -8.771808,4.3212 -12.379661,4.42053 -17.563644,8.6277 -21.864062,17.74415 -2.369551,5.02323 -3.085859,8.24392 -5.279835,23.73945 -0.756939,5.34616 -1.590925,7.24264 -6.040439,13.73587 -2.839257,4.14332 -5.991958,8.4605 -7.006025,9.59371 -2.316648,2.58876 -6.060479,2.63898 -11.483645,0.15393 z M 106.66068,72.217914 c 5.63132,-3.733388 6.56203,-13.160546 1.77724,-18.001905 -1.99051,-2.013958 -7.37091,-3.410127 -10.613274,-2.754024 -3.617034,0.731967 -7.641619,5.015793 -8.36189,8.900529 -0.708577,3.821747 1.321683,9.419819 4.258539,11.742087 2.613297,2.066426 9.897135,2.130213 12.939385,0.113179 z"
       id="path57" /><path
       style="fill:#f848c6;fill-opacity:1;stroke-width:6.36537;stroke-opacity:0.924138;paint-order:stroke fill markers"
       d="m 28.760657,249.91749 c -3.500709,-0.70197 -10.667733,-3.20202 -10.406324,-3.62998 0.128606,-0.21078 2.217226,-1.04606 4.641317,-1.85656 7.783525,-2.60248 12.160196,-5.39469 18.033534,-11.50485 6.474605,-6.73575 10.611281,-12.20852 30.563053,-40.43482 7.83205,-11.08029 19.076672,-26.9846 24.988086,-35.34295 5.911377,-8.35832 11.521887,-16.07938 12.467797,-17.15783 l 1.71975,-1.96085 3.11676,2.54875 c 1.71418,1.4018 8.51301,7.23893 15.10843,12.97139 13.29837,11.55832 18.65321,15.81944 19.87991,15.81944 1.74065,0 9.00415,-8.58849 40.07806,-47.38874 6.45371,-8.05838 17.53047,-21.84806 24.61508,-30.643725 12.94771,-16.074979 15.88567,-20.15886 15.88567,-22.082003 0,-1.539905 -2.11677,-3.72283 -8.87194,-9.149239 -3.33361,-2.677881 -6.0611,-5.019565 -6.0611,-5.20376 0,-0.423175 5.49207,-2.551834 21.49454,-8.330918 24.11024,-8.707127 32.95186,-11.813068 33.62772,-11.813068 0.86256,0 0.6383,6.193816 -1.2608,34.822112 -1.57466,23.737778 -1.71675,25.157825 -2.5172,25.157825 -0.32496,0 -3.20328,-1.989479 -6.39622,-4.420998 -3.19296,-2.431602 -6.79981,-4.888466 -8.01528,-5.459774 -3.67184,-1.7259 -4.23382,-1.311653 -13.09339,9.651821 -3.25602,4.029183 -12.86232,15.876327 -21.34736,26.327057 -27.03035,33.29225 -49.6644,61.37041 -55.17841,68.45042 -5.38449,6.91368 -9.61063,11.67546 -10.36214,11.67546 -0.22336,0 -3.48833,-2.73583 -7.25575,-6.07963 -22.31563,-19.80659 -29.10262,-25.38565 -30.31106,-24.91645 -0.93218,0.36192 -7.49165,9.29331 -23.436988,31.91183 -20.582854,29.19694 -25.158907,34.98432 -31.52217,39.86666 -3.783659,2.90309 -9.968691,6.09304 -14.136719,7.29103 -3.908784,1.12346 -12.491006,1.59539 -16.046856,0.88235 z"
       id="path58" /><path
       style="fill:#10bfd2;fill-opacity:1;stroke-width:6.36537;stroke-opacity:0.924138;paint-order:stroke fill markers"
       d="m 169.76347,203.4928 c 0,-0.59793 3.85487,-5.46707 14.71498,-18.58669 13.00877,-15.71532 22.07703,-26.94539 37.34434,-46.24692 14.99869,-18.9619 17.78071,-22.2036 18.46798,-21.51948 0.84158,0.83763 2.81382,7.71474 3.74232,13.04906 1.1833,6.79851 1.62903,20.74143 0.89364,27.95378 -1.49779,14.68901 -6.70646,27.58871 -14.28377,35.37484 -2.99229,3.07469 -6.20337,5.38084 -10.86023,7.79954 l -4.54134,2.35872 -22.73893,0.13046 c -14.47173,0.0831 -22.73899,-0.0311 -22.73899,-0.31357 z"
       id="path59" /><path
       style="fill:url(#linearGradient62);stroke-width:6.36537;stroke-opacity:0.924138;paint-order:stroke fill markers"
       d="m 128.87647,251.66784 c -7.46652,-0.15718 -13.80706,-0.43812 -14.09008,-0.62431 -0.54953,-0.36144 -3.09862,-7.18179 -8.34422,-22.32565 -1.78818,-5.16242 -3.72558,-10.47498 -4.30533,-11.80571 -1.19345,-2.73942 -2.178415,-3.33982 -6.900204,-4.20615 -1.574197,-0.28865 -3.354561,-0.75211 -3.956283,-1.02956 -1.444378,-0.66585 -1.408626,-2.09048 0.0668,-2.658 1.498183,-0.57633 6.416766,-0.49109 10.106647,0.17512 l 2.89583,0.52288 4.68122,13.50696 c 6.12165,17.66298 7.78253,22.01417 8.82588,23.12206 0.82933,0.8806 1.55133,0.92135 18.83785,1.06258 9.8865,0.0807 19.67809,0.0104 21.75908,-0.15987 l 3.78363,-0.30663 1.72364,-3.73205 c 2.2342,-4.83737 5.41586,-14.50533 5.41586,-16.45678 0,-3.35073 1.23586,-3.15578 -22.66575,-3.57588 -19.08536,-0.33536 -25.29393,-0.70261 -26.69479,-1.57862 -0.85355,-0.53378 0.54746,-2.01927 2.41962,-2.56562 2.14096,-0.6248 48.23631,-0.79862 50.90088,-0.19207 2.74472,0.6249 2.57057,2.15107 -1.80639,15.82932 -4.23973,13.24937 -5.42455,15.37698 -9.16757,16.46219 -2.32859,0.67514 -16.2679,0.89807 -33.48624,0.53555 z"
       id="path60" /><g
       id="g66"
       style="fill:url(#linearGradient67)"
       transform="matrix(1.2620037,0,0,1.2769115,-44.060669,-28.48162)"><circle
         style="fill:url(#linearGradient68);fill-opacity:1;stroke-width:2.44874;stroke-opacity:0.924138;paint-order:stroke fill markers"
         id="path61"
         cx="133.58247"
         cy="225.33923"
         r="4.0274415" /><circle
         style="fill:url(#linearGradient69);fill-opacity:1;stroke-width:2.44874;stroke-opacity:0.924138;paint-order:stroke fill markers"
         id="circle61"
         cx="155.84602"
         cy="225.71341"
         r="4.0274415" /></g></g></svg>
